<svg width="24"   height="24" margin="0px" viewBox="0 0 16 16" fill="none" xmlns="http://www.w3.org/2000/svg">
<path fill-rule="evenodd" clip-rule="evenodd" d="M2.98029 2.36626C4.46295 1.53899 6.17488 1.06667 8 1.06667C9.82512 1.06667 11.537 1.53899 13.0197 2.36626C13.2769 2.50978 13.6018 2.41762 13.7453 2.16039C13.8888 1.90316 13.7967 1.57831 13.5394 1.43479C11.9017 0.520947 10.0113 0 8 0C5.98868 0 4.09834 0.520947 2.46056 1.43479C2.20335 1.57831 2.11118 1.90316 2.25469 2.16039C2.39821 2.41762 2.72308 2.50978 2.98029 2.36626ZM0.993979 7.20732C2.39187 4.81313 5.00514 3.20169 8 3.20169C10.9949 3.20169 13.6081 4.81313 15.006 7.20732C15.1545 7.46168 15.4811 7.54749 15.7355 7.39896C15.9899 7.25045 16.0757 6.92385 15.9272 6.66949C14.3442 3.95838 11.3862 2.13502 8 2.13502C4.61382 2.13502 1.65577 3.95838 0.0728452 6.66949C-0.0756723 6.92385 0.0101366 7.25045 0.264502 7.39896C0.518867 7.54749 0.845466 7.46168 0.993979 7.20732ZM2.06851 11.2084C2.06851 7.97023 4.71945 5.33671 8 5.33671C11.2806 5.33671 13.9315 7.97023 13.9315 11.2084C13.9315 11.3348 13.9252 11.4595 13.9129 11.5823C13.8835 11.8753 14.0973 12.1368 14.3904 12.1661C14.6834 12.1955 14.9448 11.9817 14.9742 11.6886C14.9901 11.5305 14.9981 11.3703 14.9981 11.2084C14.9981 7.3718 11.8603 4.27004 8 4.27004C4.13972 4.27004 1.00185 7.3718 1.00185 11.2084C1.00185 11.3604 1.00562 11.5116 1.01311 11.6619C1.02772 11.9561 1.27806 12.1827 1.57225 12.1681C1.86643 12.1535 2.09306 11.9032 2.07845 11.609C2.07185 11.4763 2.06851 11.3428 2.06851 11.2084ZM4.22346 11.2084C4.22346 9.14938 5.90959 7.47173 8 7.47173C10.0904 7.47173 11.7765 9.14938 11.7765 11.2084C11.7765 12.0884 11.0552 12.8101 10.1549 12.8101C9.25467 12.8101 8.53333 12.0884 8.53333 11.2084C8.53333 10.9139 8.29456 10.6751 8 10.6751C7.70544 10.6751 7.46667 10.9139 7.46667 11.2084C7.46667 12.6868 8.67495 13.8768 10.1549 13.8768C11.6349 13.8768 12.8432 12.6868 12.8432 11.2084C12.8432 8.55094 10.6701 6.40506 8 6.40506C5.32986 6.40506 3.1568 8.55094 3.1568 11.2084C3.1568 12.6686 3.61232 14.0246 4.38968 15.1425C4.55785 15.3843 4.8902 15.444 5.13203 15.2758C5.37386 15.1077 5.43358 14.7753 5.2654 14.5335C4.60795 13.588 4.22346 12.4433 4.22346 11.2084ZM6.37838 11.2084C6.37838 10.3285 7.09973 9.60674 8 9.60674C8.90028 9.60674 9.62162 10.3285 9.62162 11.2084C9.62162 11.503 9.86039 11.7418 10.1549 11.7418C10.4495 11.7418 10.6883 11.503 10.6883 11.2084C10.6883 9.73009 9.48 8.54008 8 8.54008C6.52 8.54008 5.31173 9.73009 5.31173 11.2084C5.31173 13.7446 7.29093 15.8148 9.79261 15.9985C10.0864 16.0201 10.342 15.7995 10.3636 15.5057C10.3851 15.212 10.1645 14.9563 9.87076 14.9348C7.91383 14.791 6.37838 13.1734 6.37838 11.2084Z" fill="#020D1C"/>
</svg>
